<?xml version="1.0" encoding="iso-8859-1"?>
<!-- Uploaded to: SVG Repo, www.svgrepo.com, Generator: SVG Repo Mixer Tools -->
<svg fill="#000000" height="800px" width="800px" version="1.1" id="Layer_1" xmlns="http://www.w3.org/2000/svg" xmlns:xlink="http://www.w3.org/1999/xlink" 
	 viewBox="0 0 512 512" xml:space="preserve">
<g>
	<g>
		<path d="M462.27,102.788h-61.812c-4.426-19.086-14.486-36.482-29.108-49.977c-18.196-16.792-41.859-26.04-66.635-26.04
			c-16.341,0-32.068,3.94-46.201,11.498C237.433,14.079,206.917,0,174.351,0C113.363,0,63.664,49.139,62.695,109.9
			c-1.449,2.317-2.298,5.045-2.298,7.979v190.81c0,43.106,17.174,82.082,48.359,109.748c5.533,4.908,11.439,9.402,17.669,13.475
			H86.331h-36.6c-8.333,0-15.091,6.758-15.091,15.091s6.758,15.091,15.091,15.091h30.107C111.063,493.886,154.003,512,198.732,512
			h68.212c44.73,0,87.669-18.114,118.893-49.904h30.107c8.333,0,15.091-6.758,15.091-15.091s-6.758-15.091-15.091-15.091h-36.6
			h-40.092c6.228-4.073,12.137-8.567,17.669-13.475c27.81-24.672,44.465-58.341,47.748-95.911
			c17.434-4.633,33.483-13.803,46.107-26.502c17.39-17.494,26.582-39.685,26.582-64.169V117.879
			C477.361,109.546,470.603,102.788,462.27,102.788z M174.351,30.183c27.398,0,52.814,13.665,67.987,36.554
			c2.294,3.461,5.911,5.824,10.001,6.533c4.096,0.703,8.293-0.3,11.617-2.786c11.833-8.851,25.927-13.531,40.757-13.531
			c29.338,0,54.999,19.141,64.344,45.834H93.316C97.768,62.014,132.412,30.183,174.351,30.183z M266.946,481.817h-68.212
			c-25.1,0-49.517-6.962-70.626-19.721h209.465C316.461,474.854,292.046,481.817,266.946,481.817z M375.099,294.979H202.978
			c-8.333,0-15.091,6.758-15.091,15.091s6.758,15.091,15.091,15.091h171.018c-8.054,61.238-60.888,104.142-131.582,104.142h-19.148
			c-76.883,0-132.687-50.725-132.687-120.614V132.972h284.521V294.979z M447.178,231.857c0,29.104-19.157,49.669-41.895,58.718
			V132.971h41.895V231.857z"/>
	</g>
</g>
<g>
	<g>
		<path d="M172.504,307.126c-0.195-0.964-0.483-1.917-0.86-2.821c-0.377-0.921-0.847-1.794-1.388-2.609
			c-0.558-0.831-1.192-1.601-1.886-2.295c-3.501-3.501-8.709-5.116-13.614-4.118c-0.966,0.18-1.917,0.481-2.822,0.859
			c-0.919,0.377-1.794,0.83-2.609,1.388c-0.832,0.543-1.601,1.177-2.295,1.871c-0.694,0.694-1.328,1.464-1.871,2.295
			c-0.542,0.815-1.011,1.689-1.388,2.609c-0.377,0.906-0.662,1.856-0.859,2.822c-0.196,0.966-0.302,1.962-0.302,2.943
			c0,3.984,1.615,7.863,4.422,10.668c0.694,0.694,1.464,1.33,2.295,1.871c0.815,0.543,1.69,1.011,2.609,1.388
			c0.907,0.377,1.856,0.679,2.822,0.875c0.966,0.196,1.962,0.287,2.943,0.287c3.984,0,7.863-1.615,10.67-4.423
			c2.821-2.805,4.422-6.699,4.422-10.668C172.79,309.088,172.698,308.09,172.504,307.126z"/>
	</g>
</g>
</svg>