<?xml version="1.0" encoding="iso-8859-1"?>
<!-- Uploaded to: SVG Repo, www.svgrepo.com, Generator: SVG Repo Mixer Tools -->
<svg fill="#000000" height="800px" width="800px" version="1.1" id="Layer_1" xmlns="http://www.w3.org/2000/svg" xmlns:xlink="http://www.w3.org/1999/xlink" 
	 viewBox="0 0 512 512" xml:space="preserve">
<g>
	<g>
		<path d="M447.265,187.864C425.729,100.5,347.142,38.284,256,38.284S86.271,100.5,64.735,187.864C29.01,188.039,0,217.15,0,252.914
			c0,28.154,17.979,52.181,43.057,61.22l51.2,149.851c1.989,5.82,7.46,9.732,13.61,9.732h296.27c6.15,0,11.621-3.912,13.61-9.732
			l51.2-149.851c25.075-9.039,43.054-33.066,43.054-61.22C512,217.15,482.99,188.039,447.265,187.864z M208.873,73.751
			l-16.929,22.524c-4.772,6.35-3.493,15.366,2.856,20.138c2.589,1.946,5.622,2.885,8.629,2.885c4.368,0,8.682-1.982,11.508-5.741
			l26.68-35.496v32.682c0,7.943,6.44,14.382,14.382,14.382s14.382-6.439,14.382-14.382V78.06l26.68,35.498
			c2.826,3.759,7.141,5.741,11.508,5.741c3.007,0,6.04-0.939,8.629-2.885c6.35-4.772,7.63-13.788,2.856-20.138l-16.929-22.525
			c54.446,15.839,98.121,58.487,114.364,114.105H94.509C110.752,132.238,154.427,89.59,208.873,73.751z M393.852,444.952h-64.434
			l26.769-74.486c2.685-7.476-1.197-15.712-8.671-18.399c-7.47-2.688-15.711,1.195-18.399,8.669l-30.266,84.214H213.15
			l-30.266-84.214c-2.687-7.476-10.929-11.356-18.399-8.669c-7.474,2.687-11.356,10.923-8.671,18.399l26.769,74.486h-64.436
			L74.763,317.971h362.472L393.852,444.952z M446.943,289.207H65.057c-14.906,0-27.734-9.033-33.316-21.911h217.823
			c7.942,0,14.382-6.439,14.382-14.382s-6.44-14.382-14.382-14.382H31.743c5.58-12.878,18.41-21.911,33.316-21.911h11.287h359.312
			h11.287c20.013,0,36.293,16.28,36.293,36.293C483.237,272.926,466.956,289.207,446.943,289.207z"/>
	</g>
</g>
<g>
	<g>
		<path d="M302.868,242.74c-0.659-0.662-1.392-1.266-2.169-1.783c-0.791-0.518-1.625-0.964-2.488-1.323s-1.768-0.633-2.689-0.82
			c-1.855-0.374-3.768-0.374-5.623,0c-0.92,0.187-1.827,0.46-2.688,0.82c-0.864,0.36-1.699,0.805-2.488,1.323
			c-0.777,0.518-1.51,1.122-2.186,1.783c-2.675,2.675-4.215,6.386-4.215,10.168c0,0.949,0.101,1.884,0.288,2.819
			c0.187,0.92,0.46,1.827,0.82,2.689s0.805,1.697,1.323,2.474c0.516,0.791,1.122,1.524,1.783,2.186
			c0.676,0.676,1.408,1.266,2.186,1.798c0.791,0.518,1.625,0.964,2.488,1.323c0.863,0.359,1.768,0.633,2.688,0.82
			c0.935,0.187,1.871,0.273,2.804,0.273c0.949,0,1.885-0.086,2.819-0.273c0.922-0.187,1.828-0.46,2.689-0.82
			c0.864-0.36,1.698-0.805,2.488-1.323c0.777-0.532,1.51-1.122,2.172-1.798c0.676-0.662,1.266-1.395,1.798-2.186
			c0.518-0.777,0.964-1.611,1.323-2.474s0.633-1.769,0.82-2.689c0.187-0.935,0.272-1.87,0.272-2.819
			C307.082,249.125,305.558,245.415,302.868,242.74z"/>
	</g>
</g>
</svg>