<?xml version="1.0" encoding="iso-8859-1"?>
<!-- Uploaded to: SVG Repo, www.svgrepo.com, Generator: SVG Repo Mixer Tools -->
<svg fill="#000000" height="800px" width="800px" version="1.1" id="Layer_1" xmlns="http://www.w3.org/2000/svg" xmlns:xlink="http://www.w3.org/1999/xlink" 
	 viewBox="0 0 511.996 511.996" xml:space="preserve">
<g>
	<g>
		<path d="M427.841,172.169c-2.737-2.745-6.456-4.287-10.333-4.287h-26.79c-10.277-33.992-42.003-58.301-78.44-58.301h-41.694
			V64.817l77.164-23.198c7.718-2.32,12.094-10.457,9.774-18.174c-2.32-7.718-10.461-12.097-18.176-9.772l-87.555,26.323
			c-6.168,1.855-10.391,7.532-10.391,13.973v55.612h-41.688c-36.436,0-68.163,24.309-78.44,58.301H94.486
			c-3.877,0-7.595,1.544-10.333,4.287c-2.737,2.746-4.271,6.467-4.259,10.344l0.12,43.625c0.022,8.043,6.549,14.553,14.592,14.553
			h11.029l28.822,234.785c2.028,20.159,20.085,36.521,40.36,36.521h162.357c20.629,0,38.32-16.025,40.373-36.525l28.809-234.781
			h11.033c8.043,0,14.57-6.51,14.592-14.553l0.12-43.625C432.112,178.635,430.58,174.915,427.841,172.169z M348.556,472.099
			c-0.015,0.134-0.029,0.268-0.042,0.403c-0.519,5.494-5.819,10.311-11.341,10.311H174.815c-5.514,0-10.808-4.818-11.328-10.311
			c-0.013-0.134-0.028-0.27-0.044-0.403l-6.791-55.321h198.692L348.556,472.099z M358.924,387.594H153.076l-2.981-24.272h132.058
			c8.059,0,14.592-6.534,14.592-14.592s-6.533-14.592-14.592-14.592H146.511l-2.872-23.387h224.715L358.924,387.594z
			 M371.937,281.565H140.056l-5.018-40.875h241.915L371.937,281.565z M402.84,211.505h-9.393H118.544h-9.387l-0.039-14.44h23.873
			c7.302,0,13.48-5.398,14.461-12.635c3.524-26.034,25.993-45.666,52.265-45.666h112.566c26.272,0,48.741,19.632,52.265,45.666
			c0.979,7.238,7.157,12.635,14.461,12.635h23.873L402.84,211.505z"/>
	</g>
</g>
<g>
	<g>
		<path d="M340.237,345.881c-0.19-0.934-0.467-1.853-0.832-2.729c-0.365-0.889-0.817-1.735-1.342-2.523
			c-0.54-0.803-1.138-1.548-1.809-2.219c-0.671-0.671-1.43-1.284-2.218-1.808c-0.803-0.525-1.649-0.979-2.524-1.344
			c-0.876-0.365-1.795-0.641-2.729-0.83c-1.882-0.379-3.823-0.379-5.706,0c-0.934,0.19-1.853,0.466-2.729,0.83
			s-1.722,0.819-2.524,1.344c-0.788,0.524-1.547,1.137-2.218,1.808c-0.671,0.671-1.284,1.417-1.809,2.219
			c-0.525,0.788-0.978,1.634-1.343,2.523c-0.365,0.877-0.642,1.795-0.832,2.729c-0.19,0.935-0.292,1.897-0.292,2.845
			c0,0.948,0.102,1.912,0.292,2.845c0.19,0.935,0.467,1.855,0.832,2.745c0.365,0.876,0.817,1.722,1.342,2.51
			c0.525,0.803,1.138,1.548,1.809,2.219c0.671,0.671,1.43,1.284,2.218,1.808c0.803,0.54,1.649,0.979,2.524,1.344
			s1.795,0.655,2.729,0.83c0.948,0.19,1.897,0.292,2.86,0.292c3.838,0,7.588-1.561,10.317-4.275
			c0.671-0.671,1.269-1.417,1.809-2.219c0.525-0.788,0.978-1.634,1.342-2.51c0.365-0.89,0.642-1.809,0.832-2.743
			c0.19-0.935,0.277-1.897,0.277-2.845C340.514,347.778,340.427,346.815,340.237,345.881z"/>
	</g>
</g>
<g>
	<g>
		<path d="M401.291,11.738c-0.175-0.934-0.467-1.853-0.832-2.727c-0.365-0.89-0.817-1.736-1.342-2.524
			c-0.525-0.803-1.138-1.547-1.809-2.218c-0.671-0.671-1.415-1.286-2.218-1.809c-0.788-0.525-1.634-0.978-2.524-1.342
			c-0.876-0.365-1.795-0.657-2.729-0.832c-1.882-0.379-3.809-0.379-5.691,0c-0.934,0.175-1.853,0.467-2.729,0.832
			c-0.89,0.365-1.736,0.817-2.524,1.342c-0.803,0.524-1.547,1.138-2.218,1.809c-2.714,2.713-4.276,6.477-4.276,10.315
			s1.561,7.602,4.276,10.317c0.671,0.671,1.415,1.284,2.218,1.809c0.788,0.524,1.634,0.978,2.524,1.342
			c0.876,0.365,1.795,0.657,2.729,0.83c0.934,0.191,1.897,0.292,2.845,0.292s1.912-0.101,2.846-0.292
			c0.934-0.174,1.853-0.466,2.729-0.83c0.89-0.365,1.736-0.819,2.524-1.342c0.803-0.525,1.547-1.138,2.218-1.809
			c0.671-0.671,1.284-1.415,1.809-2.219c0.525-0.788,0.978-1.633,1.342-2.523c0.365-0.876,0.657-1.795,0.832-2.729
			c0.19-0.934,0.292-1.897,0.292-2.845C401.582,13.636,401.48,12.672,401.291,11.738z"/>
	</g>
</g>
</svg>